<mxfile host="app.diagrams.net" modified="2023-05-16T11:30:51.207Z" agent="Mozilla/5.0 (Windows NT 10.0; Win64; x64) AppleWebKit/537.36 (KHTML, like Gecko) Chrome/112.0.0.0 Safari/537.36 OPR/98.0.0.0" etag="GYMmo6VRPcu0HwZ8_2eH" version="21.2.4" type="github">
  <diagram id="R2lEEEUBdFMjLlhIrx00" name="Page-1">
    <mxGraphModel dx="4830" dy="2277" grid="1" gridSize="14" guides="1" tooltips="1" connect="1" arrows="1" fold="1" page="1" pageScale="1" pageWidth="850" pageHeight="1100" background="#ffffff" math="0" shadow="0" extFonts="Permanent Marker^https://fonts.googleapis.com/css?family=Permanent+Marker">
      <root>
        <mxCell id="0" />
        <mxCell id="1" parent="0" />
        <mxCell id="P4IsemDNWRHRoisWRi79-3" value="" style="ellipse;whiteSpace=wrap;html=1;" parent="1" vertex="1">
          <mxGeometry x="1107.5" y="2604" width="250.5" height="154.38" as="geometry" />
        </mxCell>
        <mxCell id="P4IsemDNWRHRoisWRi79-2" value="" style="ellipse;whiteSpace=wrap;html=1;" parent="1" vertex="1">
          <mxGeometry x="1371" y="2451.13" width="272" height="163" as="geometry" />
        </mxCell>
        <mxCell id="P4IsemDNWRHRoisWRi79-1" value="" style="ellipse;whiteSpace=wrap;html=1;" parent="1" vertex="1">
          <mxGeometry x="1407" y="2227.13" width="272" height="163" as="geometry" />
        </mxCell>
        <mxCell id="YlZFul1MHV9o11l2ybtj-17" value="&lt;p style=&quot;font-size: 25px;&quot; align=&quot;center&quot;&gt;JUEGO&lt;/p&gt;" style="rounded=0;whiteSpace=wrap;html=1;align=center;strokeWidth=2;" parent="1" vertex="1">
          <mxGeometry x="-143" y="1494" width="366" height="198" as="geometry" />
        </mxCell>
        <mxCell id="YlZFul1MHV9o11l2ybtj-47" value="&lt;p&gt;&lt;font style=&quot;font-size: 25px;&quot;&gt;PERSONAJES&lt;/font&gt;&lt;/p&gt;" style="rounded=0;whiteSpace=wrap;html=1;strokeWidth=2;" parent="1" vertex="1">
          <mxGeometry x="905" y="1494" width="360" height="195" as="geometry" />
        </mxCell>
        <mxCell id="YlZFul1MHV9o11l2ybtj-48" value="&lt;p&gt;&lt;font style=&quot;font-size: 25px;&quot;&gt;DIALOGOS&lt;/font&gt;&lt;/p&gt;" style="rounded=0;whiteSpace=wrap;html=1;strokeWidth=2;" parent="1" vertex="1">
          <mxGeometry x="900" y="2222.63" width="360" height="195" as="geometry" />
        </mxCell>
        <mxCell id="YlZFul1MHV9o11l2ybtj-49" value="" style="endArrow=none;html=1;rounded=0;entryX=0;entryY=0.5;entryDx=0;entryDy=0;strokeWidth=1;exitX=1;exitY=0.5;exitDx=0;exitDy=0;" parent="1" source="cZPuK5duA-ieg8N_5Q1n-6" target="YlZFul1MHV9o11l2ybtj-61" edge="1">
          <mxGeometry width="50" height="50" relative="1" as="geometry">
            <mxPoint x="1665.9999999999654" y="1312" as="sourcePoint" />
            <mxPoint x="791.5" y="1782" as="targetPoint" />
          </mxGeometry>
        </mxCell>
        <mxCell id="YlZFul1MHV9o11l2ybtj-50" value="&lt;font style=&quot;font-size: 15px;&quot;&gt;ID_DIALOGO&lt;/font&gt;" style="ellipse;whiteSpace=wrap;html=1;strokeWidth=2;shadow=0;perimeterSpacing=0;fillStyle=solid;fillColor=#9a9996;gradientColor=none;" parent="1" vertex="1">
          <mxGeometry x="1430.5" y="1484" width="225" height="108" as="geometry" />
        </mxCell>
        <mxCell id="YlZFul1MHV9o11l2ybtj-59" value="VIDA" style="ellipse;whiteSpace=wrap;html=1;" parent="1" vertex="1">
          <mxGeometry x="1923.5" y="1017" width="144" height="81" as="geometry" />
        </mxCell>
        <mxCell id="YlZFul1MHV9o11l2ybtj-60" value="ESTAMINA" style="ellipse;whiteSpace=wrap;html=1;" parent="1" vertex="1">
          <mxGeometry x="1834" y="1528" width="135" height="79" as="geometry" />
        </mxCell>
        <mxCell id="YlZFul1MHV9o11l2ybtj-61" value="ATAQUE" style="ellipse;whiteSpace=wrap;html=1;" parent="1" vertex="1">
          <mxGeometry x="1942.5" y="1271.75" width="126" height="80.5" as="geometry" />
        </mxCell>
        <mxCell id="YlZFul1MHV9o11l2ybtj-62" value="DEFENSA" style="ellipse;whiteSpace=wrap;html=1;" parent="1" vertex="1">
          <mxGeometry x="1923.5" y="1405" width="126" height="89" as="geometry" />
        </mxCell>
        <mxCell id="YlZFul1MHV9o11l2ybtj-63" value="PROBABILIDAD_CRITICO" style="ellipse;whiteSpace=wrap;html=1;" parent="1" vertex="1">
          <mxGeometry x="1932.5" y="1148" width="181.5" height="98" as="geometry" />
        </mxCell>
        <mxCell id="YlZFul1MHV9o11l2ybtj-64" style="edgeStyle=orthogonalEdgeStyle;rounded=0;orthogonalLoop=1;jettySize=auto;html=1;exitX=0.5;exitY=1;exitDx=0;exitDy=0;" parent="1" source="YlZFul1MHV9o11l2ybtj-61" target="YlZFul1MHV9o11l2ybtj-61" edge="1">
          <mxGeometry relative="1" as="geometry" />
        </mxCell>
        <mxCell id="YlZFul1MHV9o11l2ybtj-65" value="IDLE" style="ellipse;whiteSpace=wrap;html=1;" parent="1" vertex="1">
          <mxGeometry x="1329" y="902" width="120" height="80" as="geometry" />
        </mxCell>
        <mxCell id="YlZFul1MHV9o11l2ybtj-66" value="SP_ATACAR" style="ellipse;whiteSpace=wrap;html=1;" parent="1" vertex="1">
          <mxGeometry x="1467" y="969" width="120" height="80" as="geometry" />
        </mxCell>
        <mxCell id="YlZFul1MHV9o11l2ybtj-67" value="SP_ATACADO" style="ellipse;whiteSpace=wrap;html=1;" parent="1" vertex="1">
          <mxGeometry x="1161" y="901" width="120" height="81" as="geometry" />
        </mxCell>
        <mxCell id="YlZFul1MHV9o11l2ybtj-69" value="" style="endArrow=none;html=1;rounded=0;entryX=0.75;entryY=0;entryDx=0;entryDy=0;exitX=0.5;exitY=1;exitDx=0;exitDy=0;" parent="1" source="cZPuK5duA-ieg8N_5Q1n-8" target="YlZFul1MHV9o11l2ybtj-47" edge="1">
          <mxGeometry width="50" height="50" relative="1" as="geometry">
            <mxPoint x="1204" y="1372" as="sourcePoint" />
            <mxPoint x="1288" y="1584" as="targetPoint" />
          </mxGeometry>
        </mxCell>
        <mxCell id="YlZFul1MHV9o11l2ybtj-70" value="" style="endArrow=none;html=1;rounded=0;exitX=0.25;exitY=0;exitDx=0;exitDy=0;entryX=0.5;entryY=1;entryDx=0;entryDy=0;" parent="1" source="YlZFul1MHV9o11l2ybtj-47" target="eIX0YjGDdMyWJTTvxXHC-23" edge="1">
          <mxGeometry width="50" height="50" relative="1" as="geometry">
            <mxPoint x="1238" y="1634" as="sourcePoint" />
            <mxPoint x="767" y="1356" as="targetPoint" />
          </mxGeometry>
        </mxCell>
        <mxCell id="YlZFul1MHV9o11l2ybtj-77" value="&lt;font style=&quot;font-size: 25px;&quot;&gt;BACKGROUNDS&lt;/font&gt;" style="rounded=0;whiteSpace=wrap;html=1;strokeWidth=2;" parent="1" vertex="1">
          <mxGeometry x="-140" y="2200" width="360" height="198" as="geometry" />
        </mxCell>
        <mxCell id="YlZFul1MHV9o11l2ybtj-80" value="" style="endArrow=none;html=1;rounded=0;exitX=0;exitY=0.5;exitDx=0;exitDy=0;entryX=1;entryY=0.5;entryDx=0;entryDy=0;" parent="1" source="YlZFul1MHV9o11l2ybtj-50" target="YlZFul1MHV9o11l2ybtj-47" edge="1">
          <mxGeometry width="50" height="50" relative="1" as="geometry">
            <mxPoint x="1238" y="1724" as="sourcePoint" />
            <mxPoint x="1288" y="1674" as="targetPoint" />
          </mxGeometry>
        </mxCell>
        <mxCell id="YlZFul1MHV9o11l2ybtj-81" value="" style="endArrow=none;html=1;rounded=0;entryX=0.999;entryY=0.363;entryDx=0;entryDy=0;entryPerimeter=0;exitX=0;exitY=1;exitDx=0;exitDy=0;" parent="1" source="cZPuK5duA-ieg8N_5Q1n-6" target="YlZFul1MHV9o11l2ybtj-47" edge="1">
          <mxGeometry width="50" height="50" relative="1" as="geometry">
            <mxPoint x="1488.9199255080594" y="1349.9768126410022" as="sourcePoint" />
            <mxPoint x="1288" y="1674" as="targetPoint" />
          </mxGeometry>
        </mxCell>
        <mxCell id="YlZFul1MHV9o11l2ybtj-82" value="" style="endArrow=none;html=1;rounded=0;entryX=1;entryY=0.5;entryDx=0;entryDy=0;exitX=0;exitY=1;exitDx=0;exitDy=0;" parent="1" source="YlZFul1MHV9o11l2ybtj-59" edge="1">
          <mxGeometry width="50" height="50" relative="1" as="geometry">
            <mxPoint x="1335.5" y="1724" as="sourcePoint" />
            <mxPoint x="1665.9999999999654" y="1312" as="targetPoint" />
          </mxGeometry>
        </mxCell>
        <mxCell id="YlZFul1MHV9o11l2ybtj-90" value="" style="endArrow=none;html=1;rounded=0;entryX=1;entryY=0.5;entryDx=0;entryDy=0;exitX=0;exitY=0;exitDx=0;exitDy=0;" parent="1" source="YlZFul1MHV9o11l2ybtj-60" target="cZPuK5duA-ieg8N_5Q1n-6" edge="1">
          <mxGeometry relative="1" as="geometry">
            <mxPoint x="1085" y="1755" as="sourcePoint" />
            <mxPoint x="1665.9999999999654" y="1312" as="targetPoint" />
          </mxGeometry>
        </mxCell>
        <mxCell id="YlZFul1MHV9o11l2ybtj-92" value="" style="endArrow=none;html=1;rounded=0;entryX=1;entryY=0.5;entryDx=0;entryDy=0;exitX=0;exitY=0;exitDx=0;exitDy=0;" parent="1" source="YlZFul1MHV9o11l2ybtj-62" target="cZPuK5duA-ieg8N_5Q1n-6" edge="1">
          <mxGeometry relative="1" as="geometry">
            <mxPoint x="1956.5" y="1444.5" as="sourcePoint" />
            <mxPoint x="1665.9999999999654" y="1312" as="targetPoint" />
          </mxGeometry>
        </mxCell>
        <mxCell id="YlZFul1MHV9o11l2ybtj-93" value="" style="endArrow=none;html=1;rounded=0;entryX=1;entryY=0.5;entryDx=0;entryDy=0;exitX=0;exitY=0.5;exitDx=0;exitDy=0;" parent="1" source="YlZFul1MHV9o11l2ybtj-63" edge="1">
          <mxGeometry relative="1" as="geometry">
            <mxPoint x="1182.5" y="1755" as="sourcePoint" />
            <mxPoint x="1665.9999999999654" y="1312" as="targetPoint" />
          </mxGeometry>
        </mxCell>
        <mxCell id="YlZFul1MHV9o11l2ybtj-96" value="" style="endArrow=none;html=1;rounded=0;entryX=0.5;entryY=0;entryDx=0;entryDy=0;" parent="1" source="YlZFul1MHV9o11l2ybtj-65" target="cZPuK5duA-ieg8N_5Q1n-8" edge="1">
          <mxGeometry relative="1" as="geometry">
            <mxPoint x="1182.5" y="1512" as="sourcePoint" />
            <mxPoint x="1307.5" y="1148" as="targetPoint" />
          </mxGeometry>
        </mxCell>
        <mxCell id="YlZFul1MHV9o11l2ybtj-97" value="" style="endArrow=none;html=1;rounded=0;entryX=1;entryY=0;entryDx=0;entryDy=0;exitX=0;exitY=0.5;exitDx=0;exitDy=0;" parent="1" source="YlZFul1MHV9o11l2ybtj-68" target="cZPuK5duA-ieg8N_5Q1n-8" edge="1">
          <mxGeometry relative="1" as="geometry">
            <mxPoint x="1182.5" y="1512" as="sourcePoint" />
            <mxPoint x="1307.5" y="1148" as="targetPoint" />
          </mxGeometry>
        </mxCell>
        <mxCell id="YlZFul1MHV9o11l2ybtj-99" value="" style="endArrow=none;html=1;rounded=0;entryX=1;entryY=0;entryDx=0;entryDy=0;exitX=0;exitY=1;exitDx=0;exitDy=0;" parent="1" source="YlZFul1MHV9o11l2ybtj-66" target="cZPuK5duA-ieg8N_5Q1n-8" edge="1">
          <mxGeometry relative="1" as="geometry">
            <mxPoint x="1182.5" y="1512" as="sourcePoint" />
            <mxPoint x="1307.5" y="1148" as="targetPoint" />
          </mxGeometry>
        </mxCell>
        <mxCell id="YlZFul1MHV9o11l2ybtj-100" value="" style="endArrow=none;html=1;rounded=0;entryX=0.5;entryY=1;entryDx=0;entryDy=0;exitX=0.5;exitY=0;exitDx=0;exitDy=0;" parent="1" source="cZPuK5duA-ieg8N_5Q1n-8" target="YlZFul1MHV9o11l2ybtj-67" edge="1">
          <mxGeometry relative="1" as="geometry">
            <mxPoint x="1307.5" y="1148" as="sourcePoint" />
            <mxPoint x="1342.5" y="1512" as="targetPoint" />
          </mxGeometry>
        </mxCell>
        <mxCell id="YlZFul1MHV9o11l2ybtj-107" value="&lt;font style=&quot;font-size: 15px;&quot;&gt;ID_PERSONAJE&lt;/font&gt;" style="ellipse;whiteSpace=wrap;html=1;align=center;strokeWidth=2;fillStyle=solid;fillColor=#9a9996;" parent="1" vertex="1">
          <mxGeometry x="-532" y="1255" width="238" height="111" as="geometry" />
        </mxCell>
        <mxCell id="YlZFul1MHV9o11l2ybtj-110" value="&lt;font style=&quot;font-size: 15px;&quot;&gt;NOMBRE&lt;/font&gt;" style="ellipse;whiteSpace=wrap;html=1;align=center;strokeWidth=2;" parent="1" vertex="1">
          <mxGeometry x="532" y="1302" width="196" height="126" as="geometry" />
        </mxCell>
        <mxCell id="YlZFul1MHV9o11l2ybtj-111" value="" style="endArrow=none;html=1;rounded=0;entryX=1;entryY=0.75;entryDx=0;entryDy=0;" parent="1" source="YlZFul1MHV9o11l2ybtj-116" target="YlZFul1MHV9o11l2ybtj-47" edge="1">
          <mxGeometry relative="1" as="geometry">
            <mxPoint x="1425" y="1680" as="sourcePoint" />
            <mxPoint x="1123" y="1610" as="targetPoint" />
            <Array as="points" />
          </mxGeometry>
        </mxCell>
        <mxCell id="YlZFul1MHV9o11l2ybtj-112" value="" style="endArrow=none;html=1;rounded=0;exitX=1;exitY=1;exitDx=0;exitDy=0;entryX=0;entryY=0.25;entryDx=0;entryDy=0;" parent="1" source="YlZFul1MHV9o11l2ybtj-110" target="YlZFul1MHV9o11l2ybtj-47" edge="1">
          <mxGeometry relative="1" as="geometry">
            <mxPoint x="725" y="1358" as="sourcePoint" />
            <mxPoint x="1123" y="1610" as="targetPoint" />
          </mxGeometry>
        </mxCell>
        <mxCell id="YlZFul1MHV9o11l2ybtj-113" style="edgeStyle=orthogonalEdgeStyle;rounded=0;orthogonalLoop=1;jettySize=auto;html=1;exitX=0.5;exitY=1;exitDx=0;exitDy=0;" parent="1" source="YlZFul1MHV9o11l2ybtj-66" target="YlZFul1MHV9o11l2ybtj-66" edge="1">
          <mxGeometry relative="1" as="geometry" />
        </mxCell>
        <mxCell id="YlZFul1MHV9o11l2ybtj-116" value="&lt;font style=&quot;font-size: 15px;&quot;&gt;ID_PERSONAJE&lt;/font&gt;" style="ellipse;whiteSpace=wrap;html=1;align=center;fontStyle=4;strokeWidth=2;fillColor=#9a9996;fillStyle=hatch;" parent="1" vertex="1">
          <mxGeometry x="1484" y="1638" width="266" height="153" as="geometry" />
        </mxCell>
        <mxCell id="YlZFul1MHV9o11l2ybtj-122" value="" style="endArrow=none;html=1;rounded=0;entryX=0.5;entryY=1;entryDx=0;entryDy=0;exitX=0.25;exitY=0;exitDx=0;exitDy=0;" parent="1" source="YlZFul1MHV9o11l2ybtj-17" target="YlZFul1MHV9o11l2ybtj-150" edge="1">
          <mxGeometry relative="1" as="geometry">
            <mxPoint x="739" y="1442" as="sourcePoint" />
            <mxPoint x="-59" y="1386" as="targetPoint" />
          </mxGeometry>
        </mxCell>
        <mxCell id="YlZFul1MHV9o11l2ybtj-123" value="" style="endArrow=none;html=1;rounded=0;entryX=1;entryY=1;entryDx=0;entryDy=0;exitX=0;exitY=0;exitDx=0;exitDy=0;" parent="1" source="YlZFul1MHV9o11l2ybtj-17" target="YlZFul1MHV9o11l2ybtj-107" edge="1">
          <mxGeometry relative="1" as="geometry">
            <mxPoint x="739" y="1442" as="sourcePoint" />
            <mxPoint x="899" y="1442" as="targetPoint" />
          </mxGeometry>
        </mxCell>
        <mxCell id="YlZFul1MHV9o11l2ybtj-125" value="" style="endArrow=none;html=1;rounded=0;entryX=1;entryY=0.25;entryDx=0;entryDy=0;exitX=0;exitY=0.5;exitDx=0;exitDy=0;" parent="1" source="P4IsemDNWRHRoisWRi79-1" target="YlZFul1MHV9o11l2ybtj-48" edge="1">
          <mxGeometry relative="1" as="geometry">
            <mxPoint x="1404" y="2315.63" as="sourcePoint" />
            <mxPoint x="1264" y="2284.63" as="targetPoint" />
            <Array as="points" />
          </mxGeometry>
        </mxCell>
        <mxCell id="YlZFul1MHV9o11l2ybtj-143" style="edgeStyle=orthogonalEdgeStyle;rounded=0;orthogonalLoop=1;jettySize=auto;html=1;exitX=0.5;exitY=1;exitDx=0;exitDy=0;" parent="1" source="YlZFul1MHV9o11l2ybtj-126" target="YlZFul1MHV9o11l2ybtj-48" edge="1">
          <mxGeometry relative="1" as="geometry" />
        </mxCell>
        <mxCell id="YlZFul1MHV9o11l2ybtj-126" value="&lt;font style=&quot;font-size: 15px;&quot;&gt;POSEE&lt;/font&gt;" style="shape=rhombus;perimeter=rhombusPerimeter;whiteSpace=wrap;html=1;align=center;" parent="1" vertex="1">
          <mxGeometry x="961.5" y="1839.63" width="237" height="210" as="geometry" />
        </mxCell>
        <mxCell id="YlZFul1MHV9o11l2ybtj-129" style="edgeStyle=orthogonalEdgeStyle;rounded=0;orthogonalLoop=1;jettySize=auto;html=1;exitX=0.5;exitY=1;exitDx=0;exitDy=0;" parent="1" edge="1">
          <mxGeometry relative="1" as="geometry">
            <mxPoint x="1307.5" y="1258" as="sourcePoint" />
            <mxPoint x="1307.5" y="1258" as="targetPoint" />
          </mxGeometry>
        </mxCell>
        <mxCell id="YlZFul1MHV9o11l2ybtj-134" value="" style="endArrow=none;html=1;rounded=0;entryX=0.5;entryY=1;entryDx=0;entryDy=0;exitX=0.5;exitY=0;exitDx=0;exitDy=0;" parent="1" source="YlZFul1MHV9o11l2ybtj-126" target="YlZFul1MHV9o11l2ybtj-47" edge="1">
          <mxGeometry relative="1" as="geometry">
            <mxPoint x="1087" y="1820" as="sourcePoint" />
            <mxPoint x="941" y="1736" as="targetPoint" />
          </mxGeometry>
        </mxCell>
        <mxCell id="YlZFul1MHV9o11l2ybtj-142" style="edgeStyle=orthogonalEdgeStyle;rounded=0;orthogonalLoop=1;jettySize=auto;html=1;exitX=1;exitY=0.5;exitDx=0;exitDy=0;" parent="1" source="YlZFul1MHV9o11l2ybtj-136" edge="1">
          <mxGeometry relative="1" as="geometry">
            <mxPoint x="907" y="1593.666666666667" as="targetPoint" />
          </mxGeometry>
        </mxCell>
        <mxCell id="YlZFul1MHV9o11l2ybtj-136" value="&lt;font style=&quot;font-size: 15px;&quot;&gt;TIENE&lt;/font&gt;" style="shape=rhombus;perimeter=rhombusPerimeter;whiteSpace=wrap;html=1;align=center;" parent="1" vertex="1">
          <mxGeometry x="434.5" y="1487.5" width="245" height="210.75" as="geometry" />
        </mxCell>
        <mxCell id="YlZFul1MHV9o11l2ybtj-138" value="" style="endArrow=none;html=1;rounded=0;entryX=0;entryY=0.5;entryDx=0;entryDy=0;exitX=1;exitY=0.5;exitDx=0;exitDy=0;" parent="1" source="YlZFul1MHV9o11l2ybtj-17" target="YlZFul1MHV9o11l2ybtj-136" edge="1">
          <mxGeometry relative="1" as="geometry">
            <mxPoint x="447" y="1593.0000000000005" as="sourcePoint" />
            <mxPoint x="941" y="1778" as="targetPoint" />
          </mxGeometry>
        </mxCell>
        <mxCell id="YlZFul1MHV9o11l2ybtj-141" style="edgeStyle=orthogonalEdgeStyle;rounded=0;orthogonalLoop=1;jettySize=auto;html=1;exitX=0.5;exitY=1;exitDx=0;exitDy=0;entryX=0.5;entryY=0;entryDx=0;entryDy=0;" parent="1" source="YlZFul1MHV9o11l2ybtj-139" target="YlZFul1MHV9o11l2ybtj-77" edge="1">
          <mxGeometry relative="1" as="geometry" />
        </mxCell>
        <mxCell id="YlZFul1MHV9o11l2ybtj-139" value="&lt;font style=&quot;font-size: 15px;&quot;&gt;TIENE&lt;/font&gt;" style="shape=rhombus;perimeter=rhombusPerimeter;whiteSpace=wrap;html=1;align=center;" parent="1" vertex="1">
          <mxGeometry x="-79" y="1820" width="238" height="210" as="geometry" />
        </mxCell>
        <mxCell id="YlZFul1MHV9o11l2ybtj-140" value="" style="endArrow=none;html=1;rounded=0;entryX=0.5;entryY=1;entryDx=0;entryDy=0;exitX=0.5;exitY=0;exitDx=0;exitDy=0;" parent="1" source="YlZFul1MHV9o11l2ybtj-139" target="YlZFul1MHV9o11l2ybtj-17" edge="1">
          <mxGeometry relative="1" as="geometry">
            <mxPoint x="557" y="1834" as="sourcePoint" />
            <mxPoint x="717" y="1834" as="targetPoint" />
          </mxGeometry>
        </mxCell>
        <mxCell id="YlZFul1MHV9o11l2ybtj-144" value="&lt;font style=&quot;font-size: 15px;&quot;&gt;ID_BACKGROUND&lt;/font&gt;" style="ellipse;whiteSpace=wrap;html=1;align=center;strokeWidth=2;fillColor=#9a9996;fillStyle=hatch;" parent="1" vertex="1">
          <mxGeometry x="137" y="2534" width="266" height="112" as="geometry" />
        </mxCell>
        <mxCell id="YlZFul1MHV9o11l2ybtj-145" value="&lt;font style=&quot;font-size: 15px;&quot;&gt;IMAGEN&lt;/font&gt;" style="ellipse;whiteSpace=wrap;html=1;align=center;strokeWidth=2;" parent="1" vertex="1">
          <mxGeometry x="-311" y="2527" width="252" height="119" as="geometry" />
        </mxCell>
        <mxCell id="YlZFul1MHV9o11l2ybtj-146" value="&lt;font style=&quot;font-size: 15px;&quot;&gt;DIALOGO_ATACAR&lt;/font&gt;" style="ellipse;whiteSpace=wrap;html=1;align=center;strokeWidth=2;" parent="1" vertex="1">
          <mxGeometry x="1424" y="2245.63" width="238" height="126" as="geometry" />
        </mxCell>
        <mxCell id="YlZFul1MHV9o11l2ybtj-148" value="&lt;font style=&quot;font-size: 15px;&quot;&gt;DIALOGO_SELECCION&lt;/font&gt;" style="ellipse;whiteSpace=wrap;html=1;align=center;strokeWidth=2;" parent="1" vertex="1">
          <mxGeometry x="1124" y="2618" width="220" height="126" as="geometry" />
        </mxCell>
        <mxCell id="YlZFul1MHV9o11l2ybtj-149" value="&lt;font style=&quot;font-size: 15px;&quot;&gt;ID_DIALOGO&lt;/font&gt;" style="ellipse;whiteSpace=wrap;html=1;align=center;strokeWidth=2;fillColor=#9a9996;fillStyle=hatch;" parent="1" vertex="1">
          <mxGeometry x="812" y="2576" width="212" height="110" as="geometry" />
        </mxCell>
        <mxCell id="YlZFul1MHV9o11l2ybtj-150" value="&lt;font style=&quot;font-size: 15px;&quot;&gt;NOMBRE&lt;/font&gt;" style="ellipse;whiteSpace=wrap;html=1;align=center;strokeWidth=2;fillColor=#9a9996;fillStyle=hatch;" parent="1" vertex="1">
          <mxGeometry x="-294" y="1086" width="238" height="141" as="geometry" />
        </mxCell>
        <mxCell id="YlZFul1MHV9o11l2ybtj-151" value="" style="endArrow=none;html=1;rounded=0;entryX=0.667;entryY=1.003;entryDx=0;entryDy=0;entryPerimeter=0;exitX=0.5;exitY=0;exitDx=0;exitDy=0;" parent="1" source="YlZFul1MHV9o11l2ybtj-144" target="YlZFul1MHV9o11l2ybtj-77" edge="1">
          <mxGeometry relative="1" as="geometry">
            <mxPoint x="557" y="2128" as="sourcePoint" />
            <mxPoint x="717" y="2128" as="targetPoint" />
          </mxGeometry>
        </mxCell>
        <mxCell id="YlZFul1MHV9o11l2ybtj-152" value="" style="endArrow=none;html=1;rounded=0;entryX=0.25;entryY=1;entryDx=0;entryDy=0;exitX=0.5;exitY=0;exitDx=0;exitDy=0;" parent="1" source="YlZFul1MHV9o11l2ybtj-145" target="YlZFul1MHV9o11l2ybtj-77" edge="1">
          <mxGeometry relative="1" as="geometry">
            <mxPoint x="557" y="2128" as="sourcePoint" />
            <mxPoint x="717" y="2128" as="targetPoint" />
          </mxGeometry>
        </mxCell>
        <mxCell id="YlZFul1MHV9o11l2ybtj-153" value="" style="endArrow=none;html=1;rounded=0;entryX=0.5;entryY=1;entryDx=0;entryDy=0;exitX=0.5;exitY=0;exitDx=0;exitDy=0;" parent="1" source="P4IsemDNWRHRoisWRi79-3" target="YlZFul1MHV9o11l2ybtj-48" edge="1">
          <mxGeometry relative="1" as="geometry">
            <mxPoint x="1208" y="2609.63" as="sourcePoint" />
            <mxPoint x="934" y="2147.63" as="targetPoint" />
            <Array as="points">
              <mxPoint x="1194" y="2567.63" />
            </Array>
          </mxGeometry>
        </mxCell>
        <mxCell id="YlZFul1MHV9o11l2ybtj-154" value="" style="endArrow=none;html=1;rounded=0;entryX=0.25;entryY=1;entryDx=0;entryDy=0;exitX=0.5;exitY=0;exitDx=0;exitDy=0;" parent="1" source="YlZFul1MHV9o11l2ybtj-149" target="YlZFul1MHV9o11l2ybtj-48" edge="1">
          <mxGeometry relative="1" as="geometry">
            <mxPoint x="880" y="2623.63" as="sourcePoint" />
            <mxPoint x="934" y="2147.63" as="targetPoint" />
          </mxGeometry>
        </mxCell>
        <mxCell id="YlZFul1MHV9o11l2ybtj-155" value="" style="endArrow=none;html=1;rounded=0;entryX=1;entryY=0.75;entryDx=0;entryDy=0;exitX=0;exitY=0;exitDx=0;exitDy=0;" parent="1" source="P4IsemDNWRHRoisWRi79-2" target="YlZFul1MHV9o11l2ybtj-48" edge="1">
          <mxGeometry relative="1" as="geometry">
            <mxPoint x="1404" y="2469.63" as="sourcePoint" />
            <mxPoint x="934" y="2147.63" as="targetPoint" />
            <Array as="points" />
          </mxGeometry>
        </mxCell>
        <mxCell id="P4IsemDNWRHRoisWRi79-4" value="&lt;font style=&quot;font-size: 16px;&quot;&gt;CANCION&lt;/font&gt;" style="ellipse;whiteSpace=wrap;html=1;" parent="1" vertex="1">
          <mxGeometry x="-65" y="2656" width="210" height="130" as="geometry" />
        </mxCell>
        <mxCell id="P4IsemDNWRHRoisWRi79-5" value="" style="endArrow=none;html=1;rounded=0;entryX=0.5;entryY=1;entryDx=0;entryDy=0;exitX=0.5;exitY=0;exitDx=0;exitDy=0;" parent="1" source="P4IsemDNWRHRoisWRi79-4" target="YlZFul1MHV9o11l2ybtj-77" edge="1">
          <mxGeometry relative="1" as="geometry">
            <mxPoint x="117" y="2585" as="sourcePoint" />
            <mxPoint x="-53" y="2450" as="targetPoint" />
          </mxGeometry>
        </mxCell>
        <mxCell id="P4IsemDNWRHRoisWRi79-6" value="&lt;font style=&quot;font-size: 30px;&quot;&gt;1:M&lt;/font&gt;" style="text;html=1;strokeColor=none;fillColor=none;align=center;verticalAlign=middle;whiteSpace=wrap;rounded=0;" parent="1" vertex="1">
          <mxGeometry x="282" y="1624" width="121" height="72" as="geometry" />
        </mxCell>
        <mxCell id="P4IsemDNWRHRoisWRi79-7" value="&lt;font style=&quot;font-size: 30px;&quot;&gt;1:M&lt;/font&gt;" style="text;html=1;strokeColor=none;fillColor=none;align=center;verticalAlign=middle;whiteSpace=wrap;rounded=0;" parent="1" vertex="1">
          <mxGeometry x="-85" y="1750" width="112" height="56" as="geometry" />
        </mxCell>
        <mxCell id="P4IsemDNWRHRoisWRi79-10" value="&lt;font style=&quot;font-size: 30px;&quot;&gt;M:M&lt;/font&gt;" style="text;html=1;strokeColor=none;fillColor=none;align=center;verticalAlign=middle;whiteSpace=wrap;rounded=0;" parent="1" vertex="1">
          <mxGeometry x="1100" y="1764" width="86" height="56" as="geometry" />
        </mxCell>
        <mxCell id="OKzIOX2jL7Ez1NZ-nuzO-1" value="&lt;font style=&quot;font-size: 15px;&quot;&gt;ID_BACKGROUND&lt;/font&gt;" style="ellipse;whiteSpace=wrap;html=1;fillColor=#949494;" parent="1" vertex="1">
          <mxGeometry x="-602" y="1487.5" width="224" height="119.5" as="geometry" />
        </mxCell>
        <mxCell id="OKzIOX2jL7Ez1NZ-nuzO-3" value="" style="endArrow=none;html=1;rounded=0;entryX=1;entryY=0.5;entryDx=0;entryDy=0;exitX=0;exitY=0.5;exitDx=0;exitDy=0;" parent="1" source="YlZFul1MHV9o11l2ybtj-17" target="OKzIOX2jL7Ez1NZ-nuzO-1" edge="1">
          <mxGeometry relative="1" as="geometry">
            <mxPoint x="-171" y="1722" as="sourcePoint" />
            <mxPoint x="-304" y="1610" as="targetPoint" />
          </mxGeometry>
        </mxCell>
        <mxCell id="OKzIOX2jL7Ez1NZ-nuzO-4" value="&lt;font style=&quot;font-size: 15px;&quot;&gt;DESCRIPCION&lt;/font&gt;" style="ellipse;whiteSpace=wrap;html=1;" parent="1" vertex="1">
          <mxGeometry x="1373" y="1820" width="231" height="150" as="geometry" />
        </mxCell>
        <mxCell id="OKzIOX2jL7Ez1NZ-nuzO-6" value="" style="endArrow=none;html=1;rounded=0;entryX=0.997;entryY=0.903;entryDx=0;entryDy=0;exitX=0;exitY=0;exitDx=0;exitDy=0;entryPerimeter=0;" parent="1" source="OKzIOX2jL7Ez1NZ-nuzO-4" target="YlZFul1MHV9o11l2ybtj-47" edge="1">
          <mxGeometry relative="1" as="geometry">
            <mxPoint x="1467" y="1813" as="sourcePoint" />
            <mxPoint x="1227" y="1806" as="targetPoint" />
          </mxGeometry>
        </mxCell>
        <mxCell id="YlZFul1MHV9o11l2ybtj-147" value="&lt;font style=&quot;font-size: 15px;&quot;&gt;DIALOGO_ATACADO&lt;/font&gt;" style="ellipse;whiteSpace=wrap;html=1;align=center;strokeWidth=2;" parent="1" vertex="1">
          <mxGeometry x="1390" y="2469.63" width="238" height="126" as="geometry" />
        </mxCell>
        <mxCell id="YlZFul1MHV9o11l2ybtj-68" value="SP_ESTADO_ALTERADO" style="ellipse;whiteSpace=wrap;html=1;" parent="1" vertex="1">
          <mxGeometry x="1489.5" y="1078" width="176.5" height="88" as="geometry" />
        </mxCell>
        <mxCell id="eIX0YjGDdMyWJTTvxXHC-2" value="&lt;p&gt;&lt;span style=&quot;font-size: 25px;&quot;&gt;HABILIDADES&lt;/span&gt;&lt;/p&gt;" style="rounded=0;whiteSpace=wrap;html=1;strokeWidth=2;" parent="1" vertex="1">
          <mxGeometry x="845.5" y="609" width="360" height="195" as="geometry" />
        </mxCell>
        <mxCell id="eIX0YjGDdMyWJTTvxXHC-10" value="&lt;font style=&quot;font-size: 15px;&quot;&gt;TIENE&lt;/font&gt;" style="shape=rhombus;perimeter=rhombusPerimeter;whiteSpace=wrap;html=1;align=center;" parent="1" vertex="1">
          <mxGeometry x="924" y="1035" width="237" height="210" as="geometry" />
        </mxCell>
        <mxCell id="eIX0YjGDdMyWJTTvxXHC-16" value="" style="endArrow=none;html=1;rounded=0;exitX=0.5;exitY=0;exitDx=0;exitDy=0;entryX=0.5;entryY=1;entryDx=0;entryDy=0;" parent="1" source="YlZFul1MHV9o11l2ybtj-47" target="eIX0YjGDdMyWJTTvxXHC-10" edge="1">
          <mxGeometry width="50" height="50" relative="1" as="geometry">
            <mxPoint x="1131" y="1428.25" as="sourcePoint" />
            <mxPoint x="903" y="1290.25" as="targetPoint" />
          </mxGeometry>
        </mxCell>
        <mxCell id="eIX0YjGDdMyWJTTvxXHC-17" value="" style="endArrow=none;html=1;rounded=0;exitX=0.5;exitY=0;exitDx=0;exitDy=0;entryX=0.5;entryY=1;entryDx=0;entryDy=0;" parent="1" source="eIX0YjGDdMyWJTTvxXHC-10" target="eIX0YjGDdMyWJTTvxXHC-2" edge="1">
          <mxGeometry width="50" height="50" relative="1" as="geometry">
            <mxPoint x="1147" y="978" as="sourcePoint" />
            <mxPoint x="919" y="840" as="targetPoint" />
          </mxGeometry>
        </mxCell>
        <mxCell id="eIX0YjGDdMyWJTTvxXHC-18" value="" style="endArrow=none;html=1;rounded=0;exitX=0;exitY=0.25;exitDx=0;exitDy=0;entryX=1;entryY=0.5;entryDx=0;entryDy=0;" parent="1" source="eIX0YjGDdMyWJTTvxXHC-2" target="eIX0YjGDdMyWJTTvxXHC-28" edge="1">
          <mxGeometry width="50" height="50" relative="1" as="geometry">
            <mxPoint x="881" y="902" as="sourcePoint" />
            <mxPoint x="700" y="684" as="targetPoint" />
          </mxGeometry>
        </mxCell>
        <mxCell id="eIX0YjGDdMyWJTTvxXHC-19" value="" style="endArrow=none;html=1;rounded=0;exitX=0;exitY=0.5;exitDx=0;exitDy=0;entryX=1;entryY=0.25;entryDx=0;entryDy=0;" parent="1" source="eIX0YjGDdMyWJTTvxXHC-30" target="eIX0YjGDdMyWJTTvxXHC-2" edge="1">
          <mxGeometry width="50" height="50" relative="1" as="geometry">
            <mxPoint x="1311" y="610" as="sourcePoint" />
            <mxPoint x="1205.5" y="528.5" as="targetPoint" />
          </mxGeometry>
        </mxCell>
        <mxCell id="eIX0YjGDdMyWJTTvxXHC-20" value="" style="endArrow=none;html=1;rounded=0;exitX=0;exitY=0.5;exitDx=0;exitDy=0;entryX=1;entryY=0.75;entryDx=0;entryDy=0;" parent="1" source="eIX0YjGDdMyWJTTvxXHC-31" target="eIX0YjGDdMyWJTTvxXHC-2" edge="1">
          <mxGeometry width="50" height="50" relative="1" as="geometry">
            <mxPoint x="1311" y="740" as="sourcePoint" />
            <mxPoint x="1214.5" y="764" as="targetPoint" />
          </mxGeometry>
        </mxCell>
        <mxCell id="eIX0YjGDdMyWJTTvxXHC-21" value="" style="endArrow=none;html=1;rounded=0;entryX=0.5;entryY=1;entryDx=0;entryDy=0;exitX=0.5;exitY=0;exitDx=0;exitDy=0;" parent="1" source="eIX0YjGDdMyWJTTvxXHC-2" target="eIX0YjGDdMyWJTTvxXHC-29" edge="1">
          <mxGeometry width="50" height="50" relative="1" as="geometry">
            <mxPoint x="1120" y="602" as="sourcePoint" />
            <mxPoint x="1087" y="542" as="targetPoint" />
          </mxGeometry>
        </mxCell>
        <mxCell id="eIX0YjGDdMyWJTTvxXHC-22" value="" style="endArrow=none;html=1;rounded=0;exitX=0.25;exitY=0;exitDx=0;exitDy=0;entryX=1;entryY=1;entryDx=0;entryDy=0;" parent="1" source="eIX0YjGDdMyWJTTvxXHC-2" target="eIX0YjGDdMyWJTTvxXHC-27" edge="1">
          <mxGeometry width="50" height="50" relative="1" as="geometry">
            <mxPoint x="1001" y="628" as="sourcePoint" />
            <mxPoint x="908.5" y="570" as="targetPoint" />
          </mxGeometry>
        </mxCell>
        <mxCell id="eIX0YjGDdMyWJTTvxXHC-23" value="&lt;font style=&quot;font-size: 15px;&quot;&gt;ID_HABILIDAD&lt;/font&gt;" style="ellipse;whiteSpace=wrap;html=1;strokeWidth=2;shadow=0;perimeterSpacing=0;fillStyle=solid;fillColor=#9a9996;gradientColor=none;" parent="1" vertex="1">
          <mxGeometry x="714" y="1194" width="225" height="108" as="geometry" />
        </mxCell>
        <mxCell id="eIX0YjGDdMyWJTTvxXHC-25" value="&lt;font style=&quot;font-size: 15px;&quot;&gt;ID_HABILIDAD&lt;/font&gt;" style="ellipse;whiteSpace=wrap;html=1;align=center;strokeWidth=2;fillColor=#9a9996;fillStyle=hatch;" parent="1" vertex="1">
          <mxGeometry x="504" y="748" width="224" height="134" as="geometry" />
        </mxCell>
        <mxCell id="eIX0YjGDdMyWJTTvxXHC-26" value="" style="endArrow=none;html=1;rounded=0;exitX=0;exitY=0.75;exitDx=0;exitDy=0;entryX=1;entryY=0;entryDx=0;entryDy=0;" parent="1" source="eIX0YjGDdMyWJTTvxXHC-2" target="eIX0YjGDdMyWJTTvxXHC-25" edge="1">
          <mxGeometry width="50" height="50" relative="1" as="geometry">
            <mxPoint x="880" y="858.5" as="sourcePoint" />
            <mxPoint x="734" y="835.5" as="targetPoint" />
          </mxGeometry>
        </mxCell>
        <mxCell id="eIX0YjGDdMyWJTTvxXHC-27" value="&lt;span style=&quot;font-size: 15px;&quot;&gt;EFECTO_EXTRA&lt;/span&gt;" style="ellipse;whiteSpace=wrap;html=1;strokeWidth=2;" parent="1" vertex="1">
          <mxGeometry x="710" y="406" width="214" height="110" as="geometry" />
        </mxCell>
        <mxCell id="eIX0YjGDdMyWJTTvxXHC-28" value="&lt;span style=&quot;font-size: 15px;&quot;&gt;NOMBRE&lt;/span&gt;" style="ellipse;whiteSpace=wrap;html=1;strokeWidth=2;" parent="1" vertex="1">
          <mxGeometry x="473" y="532" width="214" height="110" as="geometry" />
        </mxCell>
        <mxCell id="eIX0YjGDdMyWJTTvxXHC-29" value="&lt;span style=&quot;font-size: 15px;&quot;&gt;COSTE_SP&lt;/span&gt;" style="ellipse;whiteSpace=wrap;html=1;strokeWidth=2;" parent="1" vertex="1">
          <mxGeometry x="961.5" y="336" width="214" height="110" as="geometry" />
        </mxCell>
        <mxCell id="eIX0YjGDdMyWJTTvxXHC-30" value="&lt;font style=&quot;font-size: 15px;&quot;&gt;DESCRIPCION&lt;/font&gt;" style="ellipse;whiteSpace=wrap;html=1;strokeWidth=2;" parent="1" vertex="1">
          <mxGeometry x="1400" y="560" width="214" height="110" as="geometry" />
        </mxCell>
        <mxCell id="eIX0YjGDdMyWJTTvxXHC-31" value="&lt;span style=&quot;font-size: 15px;&quot;&gt;TEXTO_EJECUTARSE&lt;/span&gt;" style="ellipse;whiteSpace=wrap;html=1;strokeWidth=2;" parent="1" vertex="1">
          <mxGeometry x="1381.5" y="728" width="214.5" height="118" as="geometry" />
        </mxCell>
        <mxCell id="h0iStmCFE-TG_-pjoC07-4" value="&lt;span style=&quot;font-size: 15px;&quot;&gt;TAMAÑO_PANTALLA&lt;/span&gt;" style="ellipse;whiteSpace=wrap;html=1;align=center;strokeWidth=2;" parent="1" vertex="1">
          <mxGeometry x="266" y="1232" width="210" height="134" as="geometry" />
        </mxCell>
        <mxCell id="h0iStmCFE-TG_-pjoC07-5" value="&lt;span style=&quot;font-size: 15px;&quot;&gt;VOLUMEN&lt;/span&gt;" style="ellipse;whiteSpace=wrap;html=1;align=center;strokeWidth=2;" parent="1" vertex="1">
          <mxGeometry y="1166" width="196" height="126" as="geometry" />
        </mxCell>
        <mxCell id="h0iStmCFE-TG_-pjoC07-6" value="" style="endArrow=none;html=1;rounded=0;exitX=0.5;exitY=0;exitDx=0;exitDy=0;entryX=0.5;entryY=1;entryDx=0;entryDy=0;" parent="1" source="YlZFul1MHV9o11l2ybtj-17" target="h0iStmCFE-TG_-pjoC07-5" edge="1">
          <mxGeometry relative="1" as="geometry">
            <mxPoint x="33" y="1494" as="sourcePoint" />
            <mxPoint x="126" y="1260" as="targetPoint" />
          </mxGeometry>
        </mxCell>
        <mxCell id="h0iStmCFE-TG_-pjoC07-7" value="" style="endArrow=none;html=1;rounded=0;exitX=0.75;exitY=0;exitDx=0;exitDy=0;entryX=0;entryY=1;entryDx=0;entryDy=0;" parent="1" source="YlZFul1MHV9o11l2ybtj-17" target="h0iStmCFE-TG_-pjoC07-4" edge="1">
          <mxGeometry relative="1" as="geometry">
            <mxPoint x="216" y="1564" as="sourcePoint" />
            <mxPoint x="221" y="1092" as="targetPoint" />
          </mxGeometry>
        </mxCell>
        <mxCell id="cZPuK5duA-ieg8N_5Q1n-4" value="&lt;font style=&quot;font-size: 30px;&quot;&gt;M:M&lt;/font&gt;" style="text;html=1;strokeColor=none;fillColor=none;align=center;verticalAlign=middle;whiteSpace=wrap;rounded=0;" parent="1" vertex="1">
          <mxGeometry x="924" y="846" width="86" height="56" as="geometry" />
        </mxCell>
        <mxCell id="cZPuK5duA-ieg8N_5Q1n-6" value="&lt;font style=&quot;font-size: 15px;&quot;&gt;ESTADISTICAS&lt;/font&gt;" style="ellipse;shape=doubleEllipse;margin=3;whiteSpace=wrap;html=1;align=center;" parent="1" vertex="1">
          <mxGeometry x="1468" y="1245" width="198" height="127" as="geometry" />
        </mxCell>
        <mxCell id="cZPuK5duA-ieg8N_5Q1n-8" value="&lt;font style=&quot;font-size: 15px;&quot;&gt;SPRITES&lt;/font&gt;" style="ellipse;shape=doubleEllipse;margin=3;whiteSpace=wrap;html=1;align=center;" parent="1" vertex="1">
          <mxGeometry x="1211" y="1126" width="196" height="129" as="geometry" />
        </mxCell>
        <mxCell id="OFBatejx4FJtDj573med-1" value="&lt;span style=&quot;font-size: 15px;&quot;&gt;TIPO&lt;/span&gt;" style="ellipse;whiteSpace=wrap;html=1;strokeWidth=2;" vertex="1" parent="1">
          <mxGeometry x="1186" y="446" width="214" height="110" as="geometry" />
        </mxCell>
        <mxCell id="OFBatejx4FJtDj573med-2" value="" style="endArrow=none;html=1;rounded=0;entryX=0;entryY=1;entryDx=0;entryDy=0;exitX=0.75;exitY=0;exitDx=0;exitDy=0;" edge="1" parent="1" source="eIX0YjGDdMyWJTTvxXHC-2" target="OFBatejx4FJtDj573med-1">
          <mxGeometry width="50" height="50" relative="1" as="geometry">
            <mxPoint x="1040" y="623" as="sourcePoint" />
            <mxPoint x="1083" y="460" as="targetPoint" />
          </mxGeometry>
        </mxCell>
      </root>
    </mxGraphModel>
  </diagram>
</mxfile>
